<svg id="Capa_1" enable-background="new 0 0 512 512" height="512" viewBox="0 0 512 512" width="512" xmlns="http://www.w3.org/2000/svg"><path d="m495 0v392l-120 120h-270v-512z" fill="#fff5f5"/><path d="m495 0v392l-120 120h-75v-512z" fill="#e7e7e7"/><path d="m495 413.211v-21.211h-120v120h21.211z" fill="#d3d3d8"/><path d="m225 62v90h90v-90zm60 60h-30v-30h30z" fill="#57d9ad"/><path d="m435 272h-90v-90h90zm-60-30h30v-30h-30z" fill="#26bfa6"/><path d="m285 302v90h90v-90zm60 60h-30v-30h30z" fill="#57d9ad"/><path d="m165 62h30v90h-30z" fill="#57d9ad"/><path d="m345 62h30v90h-30z" fill="#26bfa6"/><path d="m285 182h30v90h-30z" fill="#57d9ad"/><path d="m405 302h30v90h-30z" fill="#26bfa6"/><path d="m405 62h30v90h-30z" fill="#26bfa6"/><path d="m1.358 399.449h126.323v29.999h-126.323z" fill="#ff637b" transform="matrix(.555 -.832 .832 .555 -316.112 238.237)"/><g fill="#26bfa6"><path d="m300 62h15v90h-15z"/><path d="m300 182h15v90h-15z"/><path d="m300 302v90h75v-90zm45 60h-30v-30h30z"/></g><path d="m150 182c-57.9 0-105 47.1-105 105s47.1 105 105 105 105-47.1 105-105-47.1-105-105-105z" fill="#537983"/><path d="m255 287c0 57.9-47.1 105-105 105v-210c57.9 0 105 47.1 105 105z" fill="#3e5959"/><path d="m150 212c-41.4 0-75 33.6-75 75s33.6 75 75 75 75-33.6 75-75-33.6-75-75-75z" fill="#fff5f5"/><path d="m225 287c0 41.4-33.6 75-75 75v-150c41.4 0 75 33.6 75 75z" fill="#e7e7e7"/></svg>