<?xml version="1.0" encoding="UTF-8" standalone="no"?>
<!-- Generator: Adobe Illustrator 19.0.0, SVG Export Plug-In . SVG Version: 6.00 Build 0)  -->

<svg
   xmlns:dc="http://purl.org/dc/elements/1.1/"
   xmlns:cc="http://creativecommons.org/ns#"
   xmlns:rdf="http://www.w3.org/1999/02/22-rdf-syntax-ns#"
   xmlns:svg="http://www.w3.org/2000/svg"
   xmlns="http://www.w3.org/2000/svg"
   xmlns:sodipodi="http://sodipodi.sourceforge.net/DTD/sodipodi-0.dtd"
   xmlns:inkscape="http://www.inkscape.org/namespaces/inkscape"
   version="1.1"
   id="Layer_1"
   x="0px"
   y="0px"
   viewBox="0 0 509.287 509.287"
   style="enable-background:new 0 0 509.287 509.287;"
   xml:space="preserve"
   sodipodi:docname="link.svg"
   inkscape:version="0.92.3 (2405546, 2018-03-11)"><metadata
   id="metadata47"><rdf:RDF><cc:Work
       rdf:about=""><dc:format>image/svg+xml</dc:format><dc:type
         rdf:resource="http://purl.org/dc/dcmitype/StillImage" /><dc:title></dc:title></cc:Work></rdf:RDF></metadata><defs
   id="defs45" /><sodipodi:namedview
   pagecolor="#ffffff"
   bordercolor="#666666"
   borderopacity="1"
   objecttolerance="10"
   gridtolerance="10"
   guidetolerance="10"
   inkscape:pageopacity="0"
   inkscape:pageshadow="2"
   inkscape:window-width="1855"
   inkscape:window-height="1176"
   id="namedview43"
   showgrid="false"
   inkscape:zoom="0.46339295"
   inkscape:cx="-80.924839"
   inkscape:cy="254.64349"
   inkscape:window-x="65"
   inkscape:window-y="24"
   inkscape:window-maximized="1"
   inkscape:current-layer="Layer_1" />
<circle
   style="fill:#71D456;"
   cx="254.644"
   cy="254.644"
   r="254.644"
   id="circle2" />
<g
   id="g8">
	<path
   style="fill:#FFFFFC;"
   d="M246.506,382.474l-42.045,42.045c-32.89,32.89-86.464,32.89-119.354,0s-32.89-86.464,0-119.354   l42.045-42.045c32.89-32.89,86.464-32.89,119.354,0C279.396,296.011,279.396,349.584,246.506,382.474z M114.268,333.987   c-16.954,16.954-16.954,44.079,0,61.033s44.079,16.954,61.033,0l42.045-42.045c16.954-16.954,16.954-44.079,0-61.033   s-44.079-16.954-61.033,0L114.268,333.987z"
   id="path4" />
	<path
   style="fill:#FFFFFC;"
   d="M424.18,204.461l-42.045,42.045c-32.89,32.89-86.464,32.89-119.354,0s-32.89-86.464,0-119.354   l42.045-42.045c32.89-32.89,86.464-32.89,119.354,0S457.07,171.571,424.18,204.461z M292.281,155.974   c-16.954,16.954-16.954,44.079,0,61.033s44.079,16.954,61.033,0l42.045-42.045c16.954-16.954,16.954-44.079,0-61.033   s-44.079-16.954-61.033,0L292.281,155.974z"
   id="path6" />
</g>
<path
   style="fill:#DEDEDF;"
   d="M324.154,214.633L214.633,324.154c-8.138,8.138-21.023,8.138-29.16,0s-8.138-21.022,0-29.16  l109.181-109.86c8.138-8.138,21.023-8.138,29.16,0S331.952,206.495,324.154,214.633z"
   id="path10" />
<g
   id="g12">
</g>
<g
   id="g14">
</g>
<g
   id="g16">
</g>
<g
   id="g18">
</g>
<g
   id="g20">
</g>
<g
   id="g22">
</g>
<g
   id="g24">
</g>
<g
   id="g26">
</g>
<g
   id="g28">
</g>
<g
   id="g30">
</g>
<g
   id="g32">
</g>
<g
   id="g34">
</g>
<g
   id="g36">
</g>
<g
   id="g38">
</g>
<g
   id="g40">
</g>
</svg>