<svg height="512pt" viewBox="0 0 512 512" width="512pt" xmlns="http://www.w3.org/2000/svg"><path d="m512 256c0 141.386719-114.613281 256-256 256s-256-114.613281-256-256 114.613281-256 256-256 256 114.613281 256 256zm0 0" fill="#005fdf"/><path d="m506.199219 310.339844-36.933594-36.875c-5.269531-6-12.988281-9.785156-21.597656-9.785156-9.46875 0-17.867188 4.578124-23.105469 11.636718l-21.90625-21.859375c-7.460938-8.425781-18.363281-13.738281-30.503906-13.738281-12.882813 0-24.359375 5.984375-31.824219 15.324219l-31.328125-31.222657c-10.675781-11.84375-26.132812-19.292968-43.335938-19.292968-18.089843 0-34.253906 8.238281-44.953124 21.164062l-43.921876-44.164062c-15.078124-15.90625-36.394531-25.84375-60.042968-25.84375-45.699219 0-82.746094 37.046875-82.746094 82.75 0 23.59375 9.886719 44.863281 25.730469 59.933594l210.523437 210.265624c.828125.957032 1.6875 1.886719 2.558594 2.804688 115.199219-7.472656 209.617188-91.125 233.386719-201.097656zm0 0" fill="#00347b"/><path d="m199.492188 238.433594c0 45.699218-37.046876 82.746094-82.746094 82.746094-45.699219 0-82.746094-37.046876-82.746094-82.746094 0-45.703125 37.046875-82.75 82.746094-82.75 45.699218 0 82.746094 37.046875 82.746094 82.75zm0 0" fill="#ffe767"/><path d="m199.488281 238.429688c0 45.699218-37.039062 82.75-82.738281 82.75v-165.488282c45.699219 0 82.738281 37.039063 82.738281 82.738282zm0 0" fill="#ffdc00"/><path d="m184.59375 238.433594c0 37.46875-30.375 67.84375-67.847656 67.84375-37.46875 0-67.84375-30.375-67.84375-67.84375 0-37.472656 30.375-67.847656 67.84375-67.847656 37.472656 0 67.847656 30.375 67.847656 67.847656zm0 0" fill="#ffee93"/><path d="m184.589844 238.429688c0 37.46875-30.371094 67.851562-67.839844 67.851562v-135.691406c37.46875 0 67.839844 30.371094 67.839844 67.839844zm0 0" fill="#ffe767"/><path d="m168.558594 238.433594c0 28.613281-23.199219 51.808594-51.8125 51.808594-28.613282 0-51.808594-23.195313-51.808594-51.808594 0-28.617188 23.195312-51.8125 51.808594-51.8125 28.613281 0 51.8125 23.195312 51.8125 51.8125zm0 0" fill="#ffd500"/><path d="m168.558594 238.429688c0 28.621093-23.199219 51.808593-51.808594 51.808593v-103.617187c28.609375 0 51.808594 23.199218 51.808594 51.808594zm0 0" fill="#ffc100"/><path d="m476.417969 292.429688c0 15.878906-12.871094 28.75-28.75 28.75-15.878907 0-28.75-12.871094-28.75-28.75 0-15.878907 12.871093-28.75 28.75-28.75 15.878906 0 28.75 12.871093 28.75 28.75zm0 0" fill="#00f8fe"/><path d="m476.414062 292.433594c0 15.871094-12.875 28.746094-28.746093 28.746094v-57.503907c15.871093 0 28.746093 12.875 28.746093 28.757813zm0 0" fill="#00dae1"/><path d="m476.394531 291.679688h-13.058593c-4.257813 0-7.75-3.492188-7.75-7.75 0-.972657.183593-1.894532.515624-2.75h-.738281c-2.984375 0-5.425781-2.441407-5.425781-5.425782v-.878906c0-2.984375 2.441406-5.433594 5.425781-5.433594h9.574219c6.777344 5.105469 11.230469 13.144532 11.457031 22.238282zm0 0" fill="#00a863"/><path d="m428.972656 293.113281h5.765625c2.015625 0 3.660157-1.648437 3.660157-3.664062v-.515625c0-2.015625-1.644532-3.664063-3.660157-3.664063h-5.765625c-2.011718 0-3.660156 1.648438-3.660156 3.664063v.515625c0 2.015625 1.648438 3.664062 3.660156 3.664062zm0 0" fill="#70d840"/><path d="m457.6875 306.722656c0 4.257813-3.492188 7.75-7.75 7.75h-20.710938c-4.703124-3.914062-8.125-9.332031-9.558593-15.5h30.269531c4.257812 0 7.75 3.480469 7.75 7.75zm0 0" fill="#70d840"/><path d="m457.6875 306.71875c0 4.261719-3.488281 7.757812-7.746094 7.757812h-2.273437v-15.503906h2.273437c4.257813 0 7.746094 3.476563 7.746094 7.746094zm0 0" fill="#00a863"/><path d="m323.988281 262.851562c0 32.214844-26.109375 58.328126-58.324219 58.328126-32.210937 0-58.324218-26.113282-58.324218-58.328126 0-32.210937 26.113281-58.324218 58.324218-58.324218 32.214844 0 58.324219 26.113281 58.324219 58.324218zm0 0" fill="#ffb400"/><path d="m323.988281 262.851562c0 32.21875-26.109375 58.328126-58.316406 58.328126v-116.648438c32.207031 0 58.316406 26.109375 58.316406 58.320312zm0 0" fill="#eaa700"/><path d="m294.1875 232.089844c0 2.984375-2.414062 5.398437-5.398438 5.398437-2.980468 0-5.398437-2.414062-5.398437-5.398437 0-2.980469 2.417969-5.398438 5.398437-5.398438 2.984376 0 5.398438 2.417969 5.398438 5.398438zm0 0" fill="#ffc100"/><path d="m255.191406 269.515625c0 7.882813-6.390625 14.273437-14.273437 14.273437-7.886719 0-14.277344-6.390624-14.277344-14.273437 0-7.886719 6.390625-14.277344 14.277344-14.277344 7.882812 0 14.273437 6.390625 14.273437 14.277344zm0 0" fill="#ffd000"/><path d="m299.570312 280.449219c0 4.46875-3.621093 8.089843-8.089843 8.089843s-8.089844-3.621093-8.089844-8.089843 3.621094-8.089844 8.089844-8.089844 8.089843 3.621094 8.089843 8.089844zm0 0" fill="#ffc100"/><path d="m412.882812 280.449219c0 22.496093-18.234374 40.730469-40.730468 40.730469-22.492188 0-40.730469-18.234376-40.730469-40.730469 0-22.496094 18.238281-40.730469 40.730469-40.730469 22.496094 0 40.730468 18.234375 40.730468 40.730469zm0 0" fill="#ffac00"/><path d="m412.878906 280.449219c0 22.492187-18.230468 40.730469-40.730468 40.730469v-81.460938c22.5 0 40.730468 18.230469 40.730468 40.730469zm0 0" fill="#ff9b00"/><path d="m384.832031 253.023438c-4.207031 0-7.613281 3.410156-7.613281 7.613281 0 4.207031 3.40625 7.617187 7.613281 7.617187h26.191407c-1.792969-5.726562-4.816407-10.902344-8.757813-15.230468zm0 0" fill="#ffb942"/><path d="m379.160156 295.34375c0-4.203125-3.410156-7.613281-7.613281-7.613281h-39.460937c1.003906 5.546875 3.121093 10.707031 6.125 15.230469h33.335937c4.203125 0 7.613281-3.410157 7.613281-7.617188zm0 0" fill="#ffc56e"/><path d="m379.160156 295.351562c0 3.988282-3.082031 7.269532-7.011718 7.578126v-15.167969c3.929687.308593 7.011718 3.589843 7.011718 7.589843zm0 0" fill="#ffb942"/><path d="m361.019531 268.253906c0 2.980469-2.414062 5.398438-5.398437 5.398438-2.980469 0-5.398438-2.417969-5.398438-5.398438 0-2.984375 2.417969-5.402344 5.398438-5.402344 2.984375 0 5.398437 2.417969 5.398437 5.402344zm0 0" fill="#ffc56e"/><path d="m395.972656 300.738281c0 2.984375-2.414062 5.398438-5.398437 5.398438-2.980469 0-5.398438-2.414063-5.398438-5.398438 0-2.980469 2.417969-5.398437 5.398438-5.398437 2.984375 0 5.398437 2.417968 5.398437 5.398437zm0 0" fill="#ffb942"/></svg>