<svg height="398pt" viewBox="-7 0 398 398.68" width="398pt" xmlns="http://www.w3.org/2000/svg"><path d="m192.339844 398.679688c71.3125 0 192-13.480469 192-64v-20.503907l-192-314.175781-192 314.183594v20.496094c0 50.519531 120.6875 64 192 64zm0-32c-94.816406 0-153.3125-20.457032-159.777344-32 6.464844-11.542969 64.960938-32 159.777344-32 94.808594 0 153.304687 20.457031 159.777344 32-6.472657 11.542968-64.96875 32-159.777344 32zm138.640625-78.457032c-41.25-13.144531-97.960938-17.542968-138.640625-17.542968-40.679688 0-97.390625 4.398437-138.640625 17.542968l138.640625-226.863281zm0 0"/></svg>