<svg height="513pt" viewBox="-22 0 513 513.088" width="513pt" xmlns="http://www.w3.org/2000/svg"><path d="m368.042969 180.90625c0-32.019531-26.664063-57.984375-59.582031-57.984375h-227.5c-32.917969.023437-59.582032 25.964844-59.582032 57.984375v263.53125c0 32.019531 26.664063 57.984375 59.582032 57.984375h227.5c32.917968 0 59.582031-25.964844 59.582031-57.984375zm0 0" fill="#1976d2"/><path d="m469.378906 58.792969c0-32.46875-26.261718-58.792969-58.667968-58.792969h-224c-32.40625 0-58.667969 26.324219-58.667969 58.792969v267.246093c0 32.46875 26.261719 58.792969 58.667969 58.792969h224c32.40625 0 58.667968-26.324219 58.667968-58.792969zm0 0" fill="#2196f3"/><path d="m325.378906 513.089844h-266.667968c-32.363282 0-58.6679692-26.371094-58.6679692-58.753906v-288.640626c0-32.40625 26.3046872-58.75 58.6679692-58.75h10.667968c8.832032 0 16 7.167969 16 16 0 8.832032-7.167968 16-16 16h-10.667968c-14.699219 0-26.667969 11.988282-26.667969 26.75v288.621094c0 14.761719 11.96875 26.75 26.667969 26.75h266.667968c14.695313 0 26.664063-11.988281 26.664063-26.75v-10.691406c0-8.832031 7.167969-16 16-16s16 7.167969 16 16v10.691406c0 32.402344-26.304688 58.773438-58.664063 58.773438zm0 0"/><path d="m410.710938 384.8125h-224c-32.363282 0-58.667969-26.371094-58.667969-58.753906v-267.265625c0-32.402344 26.304687-58.7500002 58.667969-58.7500002h224c32.363281 0 58.667968 26.3671872 58.667968 58.7500002v267.246093c0 32.402344-26.304687 58.773438-58.667968 58.773438zm-224-352.792969c-14.699219 0-26.667969 11.992188-26.667969 26.753907v267.242187c0 14.761719 11.96875 26.753906 26.667969 26.753906h224c14.699218 0 26.667968-11.992187 26.667968-26.753906v-267.222656c0-14.761719-11.96875-26.75-26.667968-26.75h-224zm0 0"/></svg>