<svg height="512pt" viewBox="-17 0 512 512.00117" width="512pt" xmlns="http://www.w3.org/2000/svg"><path d="m332.800781 68.269531v102.398438l-145.066406 298.667969h-153.601563c-14.136718 0-25.597656-11.464844-25.597656-25.601563v-375.464844c0-14.140625 11.460938-25.601562 25.597656-25.601562h273.066407c14.140625 0 25.601562 11.460937 25.601562 25.601562zm0 0" fill="#4e342e"/><path d="m307.199219 68.269531v102.398438l-145.066407 298.667969h-128c-14.136718 0-25.597656-11.464844-25.597656-25.601563v-375.464844c0-14.140625 11.460938-25.601562 25.597656-25.601562h247.46875c14.136719 0 25.597657 11.460937 25.597657 25.601562zm0 0" fill="#795548"/><path d="m258.476562 76.972656v.085938h-174.59375l.085938-.171875 15.785156-30.292969 13.3125-25.429688c4.1875-7.832031 12.371094-12.695312 21.25-12.628906h73.8125c8.875-.050781 17.050782 4.808594 21.246094 12.628906l13.226562 25.429688 15.789063 30.378906zm0 0" fill="#607d8b"/><path d="m281.601562 102.402344c0 14.136718-11.460937 25.597656-25.601562 25.597656h-170.667969c-10.34375-.007812-19.667969-6.246094-23.628906-15.804688-3.957031-9.5625-1.773437-20.5625 5.539063-27.886718 4.039062-4.097656 9.378906-6.664063 15.105468-7.25.507813-.101563 1.019532-.15625 1.535156-.171875h.085938l148.820312.085937h25.6875c13.144532 1.175782 23.199219 12.230469 23.125 25.429688zm0 0" fill="#607d8b"/><path d="m232.789062 76.972656-148.820312-.085937 15.785156-30.292969 13.3125-25.429688c4.1875-7.832031 12.371094-12.695312 21.25-12.628906h48.210938c8.875-.050781 17.054687 4.808594 21.25 12.628906l13.226562 25.429688zm0 0" fill="#cfd8dc"/><path d="m256 102.402344c0 14.136718-11.460938 25.597656-25.597656 25.597656h-145.070313c-10.34375-.007812-19.667969-6.246094-23.628906-15.804688-3.957031-9.5625-1.773437-20.5625 5.539063-27.886718 4.039062-4.097656 9.378906-6.664063 15.105468-7.25h150.527344v-.085938c.203125-.015625.40625.015625.597656.085938 12.898438 1.421875 22.628906 12.367187 22.527344 25.34375zm0 0" fill="#cfd8dc"/><path d="m187.734375 59.734375c0 9.425781-7.640625 17.066406-17.066406 17.066406s-17.066407-7.640625-17.066407-17.066406 7.640626-17.066406 17.066407-17.066406 17.066406 7.640625 17.066406 17.066406zm0 0" fill="#e6e7e8"/><path d="m469.332031 256v221.867188c0 14.140624-11.460937 25.601562-25.597656 25.601562h-230.402344c-14.136719 0-25.597656-11.460938-25.597656-25.601562v-281.597657c0-14.140625 11.460937-25.601562 25.597656-25.601562h162.136719zm0 0" fill="#ff9801"/><path d="m443.734375 256v221.867188c0 14.140624-11.460937 25.601562-25.601563 25.601562h-204.800781c-14.136719 0-25.597656-11.460938-25.597656-25.601562v-281.597657c0-14.140625 11.460937-25.601562 25.597656-25.601562h136.535157zm0 0" fill="#fec108"/><path d="m469.332031 256h-76.796875c-9.425781 0-17.066406-7.640625-17.066406-17.066406v-68.265625zm0 0" fill="#fdd834"/><path d="m170.667969 85.335938c14.136719 0 25.597656-11.464844 25.597656-25.601563s-11.460937-25.601563-25.597656-25.601563c-14.140625 0-25.601563 11.464844-25.601563 25.601563s11.460938 25.601563 25.601563 25.601563zm0-34.136719c4.710937 0 8.53125 3.824219 8.53125 8.535156 0 4.714844-3.820313 8.535156-8.53125 8.535156-4.714844 0-8.535157-3.820312-8.535157-8.535156 0-4.710937 3.820313-8.535156 8.535157-8.535156zm0 0"/><path d="m307.199219 34.132812h-61.4375l-8.839844-16.894531c-5.632813-10.6875-16.757813-17.3359372-28.835937-17.238281h-73.796876c-12.078124-.101562-23.199218 6.550781-28.824218 17.238281l-8.808594 16.894531h-62.523438c-18.851562 0-34.132812 15.285157-34.132812 34.136719v375.464844c0 18.851563 15.28125 34.132813 34.132812 34.132813h145.066407c0 18.851562 15.285156 34.132812 34.132812 34.132812h230.402344c18.851563 0 34.132813-15.28125 34.132813-34.132812v-221.867188c0-.1875-.09375-.347656-.109376-.535156-.046874-.773438-.199218-1.539063-.453124-2.269532-.105469-.292968-.222657-.578124-.359376-.855468-.332031-.667969-.75-1.292969-1.246093-1.851563-.171875-.195312-.289063-.410156-.476563-.589843-.058594-.050782-.085937-.125-.144531-.179688l-93.867187-85.332031c-.675782-.605469-1.445313-1.09375-2.277344-1.449219-.191406-.085938-.402344-.121094-.597656-.1875-.78125-.28125-1.597657-.449219-2.425782-.496094-.152344 0-.28125-.085937-.441406-.085937h-34.136719v-93.898438c0-18.851562-15.28125-34.136719-34.132812-34.136719zm-186.597657-9.019531c2.734376-4.996093 7.992188-8.085937 13.6875-8.046875h73.796876c5.683593-.027344 10.925781 3.0625 13.652343 8.046875l29.140625 55.894531c.222656.320313.46875.621094.734375.90625.234375.339844.492188.664063.777344.960938.535156.558594 1.144531 1.039062 1.808594 1.425781.207031.113281.394531.230469.613281.335938.808594.386719 1.671875.640625 2.5625.75.101562 0 .179688.074219.273438.085937 8.859374 1.101563 15.371093 8.84375 14.941406 17.761719-.433594 8.917969-7.664063 15.992187-16.589844 16.234375h-170.667969c-6.894531-.007812-13.109375-4.167969-15.746093-10.539062-2.636719-6.371094-1.183594-13.707032 3.691406-18.585938 2.71875-2.730469 6.308594-4.425781 10.144531-4.796875.164063 0 .316406.050781.476563.050781 3.1875.003906 6.109374-1.765625 7.578124-4.589844zm-86.46875 435.6875c-9.425781 0-17.066406-7.640625-17.066406-17.066406v-375.464844c0-9.425781 7.640625-17.070312 17.066406-17.070312h53.632813l-9.257813 17.855469c-15.890624 3.179687-27.320312 17.140624-27.308593 33.347656 0 18.851562 15.285156 34.132812 34.132812 34.132812h170.667969c17.25.058594 31.8125-12.800781 33.886719-29.925781 2.074219-17.121094-9-33.085937-25.761719-37.148437l-9.515625-18.261719h52.589844c9.425781 0 17.066406 7.644531 17.066406 17.070312v93.863281h-110.933594c-18.847656 0-34.132812 15.285157-34.132812 34.136719v264.53125zm409.601563 34.132813h-230.402344c-9.421875 0-17.066406-7.640625-17.066406-17.066406v-281.597657c0-9.425781 7.644531-17.070312 17.066406-17.070312h153.601563v59.734375c0 14.140625 11.460937 25.601562 25.601562 25.601562h68.265625v213.332032c0 9.425781-7.640625 17.066406-17.066406 17.066406zm-51.199219-247.464844c-4.714844 0-8.535156-3.820312-8.535156-8.535156v-48.972656l63.257812 57.507812zm0 0"/><path d="m426.667969 281.601562h-196.265625c-4.714844 0-8.535156 3.820313-8.535156 8.53125 0 4.714844 3.820312 8.535157 8.535156 8.535157h196.265625c4.710937 0 8.53125-3.820313 8.53125-8.535157 0-4.710937-3.820313-8.53125-8.53125-8.53125zm0 0"/><path d="m426.667969 324.269531h-196.265625c-4.714844 0-8.535156 3.820313-8.535156 8.53125 0 4.714844 3.820312 8.535157 8.535156 8.535157h196.265625c4.710937 0 8.53125-3.820313 8.53125-8.535157 0-4.710937-3.820313-8.53125-8.53125-8.53125zm0 0"/><path d="m426.667969 366.933594h-196.265625c-4.714844 0-8.535156 3.820312-8.535156 8.535156 0 4.710938 3.820312 8.53125 8.535156 8.53125h196.265625c4.710937 0 8.53125-3.820312 8.53125-8.53125 0-4.714844-3.820313-8.535156-8.53125-8.535156zm0 0"/><path d="m426.667969 409.601562h-196.265625c-4.714844 0-8.535156 3.820313-8.535156 8.53125 0 4.714844 3.820312 8.535157 8.535156 8.535157h196.265625c4.710937 0 8.53125-3.820313 8.53125-8.535157 0-4.710937-3.820313-8.53125-8.53125-8.53125zm0 0"/><path d="m426.667969 452.269531h-196.265625c-4.714844 0-8.535156 3.820313-8.535156 8.53125 0 4.714844 3.820312 8.535157 8.535156 8.535157h196.265625c4.710937 0 8.53125-3.820313 8.53125-8.535157 0-4.710937-3.820313-8.53125-8.53125-8.53125zm0 0"/><path d="m42.667969 145.066406c-4.714844 0-8.535157 3.820313-8.535157 8.535156v25.597657c0 4.714843 3.820313 8.535156 8.535157 8.535156 4.710937 0 8.53125-3.820313 8.53125-8.535156v-25.597657c0-4.714843-3.820313-8.535156-8.53125-8.535156zm0 0"/><path d="m42.667969 204.800781c-4.714844 0-8.535157 3.820313-8.535157 8.535157v119.464843c0 4.714844 3.820313 8.535157 8.535157 8.535157 4.710937 0 8.53125-3.820313 8.53125-8.535157v-119.464843c0-4.714844-3.820313-8.535157-8.53125-8.535157zm0 0"/></svg>