<?xml version="1.0" encoding="iso-8859-1"?>
<!-- Generator: Adobe Illustrator 16.0.0, SVG Export Plug-In . SVG Version: 6.00 Build 0)  -->
<!DOCTYPE svg PUBLIC "-//W3C//DTD SVG 1.1//EN" "http://www.w3.org/Graphics/SVG/1.1/DTD/svg11.dtd">
<svg version="1.1" id="Capa_1" xmlns="http://www.w3.org/2000/svg" xmlns:xlink="http://www.w3.org/1999/xlink" x="0px" y="0px"
	 width="32.75px" height="32.75px" viewBox="0 0 32.75 32.75" style="enable-background:new 0 0 32.75 32.75;" xml:space="preserve"
	>
<g>
	<g>
		<path d="M9.915,25.666h3.36v-14.16h-2.36c-0.04,0.227-0.116,0.47-0.229,0.73c-0.113,0.26-0.291,0.5-0.53,0.72
			c-0.24,0.22-0.563,0.403-0.97,0.55c-0.407,0.147-0.931,0.22-1.57,0.22h-0.42v2.12h2.72L9.915,25.666L9.915,25.666z"/>
		<path d="M20.314,21.066c0.601,0,1.112-0.102,1.541-0.301c0.426-0.199,0.752-0.514,0.979-0.939h0.04
			c0,0.787-0.021,1.438-0.062,1.949c-0.039,0.514-0.115,0.92-0.229,1.221c-0.113,0.3-0.26,0.514-0.439,0.64
			c-0.181,0.128-0.41,0.19-0.689,0.19c-0.373,0-0.646-0.146-0.82-0.44c-0.08-0.146-0.133-0.31-0.16-0.489
			c-0.025-0.181-0.039-0.362-0.039-0.551h-3.24c0.027,1.28,0.4,2.2,1.119,2.762c0.722,0.56,1.722,0.84,3,0.84
			c1.146,0,2.047-0.17,2.701-0.512c0.652-0.34,1.146-0.836,1.479-1.488c0.333-0.653,0.54-1.443,0.62-2.37s0.119-1.983,0.119-3.17
			c0-1.054-0.047-2.007-0.139-2.86c-0.095-0.853-0.306-1.58-0.632-2.18c-0.325-0.601-0.8-1.061-1.42-1.38
			c-0.62-0.32-1.448-0.48-2.489-0.48c-0.935,0-1.699,0.137-2.301,0.41s-1.072,0.644-1.42,1.11c-0.348,0.466-0.587,1.013-0.721,1.64
			c-0.133,0.627-0.199,1.293-0.199,2c0,1.587,0.296,2.717,0.891,3.39C18.398,20.729,19.234,21.066,20.314,21.066z M20.535,14.276
			c0.173-0.434,0.5-0.65,0.98-0.65c0.491,0,0.821,0.24,0.988,0.72s0.25,1.141,0.25,1.98c0,0.32-0.018,0.617-0.05,0.89
			c-0.033,0.273-0.099,0.515-0.188,0.72c-0.095,0.207-0.218,0.367-0.371,0.48c-0.152,0.113-0.356,0.17-0.609,0.17
			c-0.533,0-0.877-0.195-1.03-0.59s-0.229-1.03-0.229-1.91C20.275,15.313,20.361,14.709,20.535,14.276z"/>
		<path d="M29.375,1.25h-1.123c0.029-0.093,0.059-0.186,0.059-0.289c0-0.53-0.432-0.961-0.963-0.961s-0.961,0.431-0.961,0.961
			c0,0.104,0.028,0.196,0.059,0.289h-3.68c0.029-0.093,0.059-0.186,0.059-0.289c0-0.53-0.432-0.961-0.963-0.961
			C21.332,0,20.9,0.431,20.9,0.961c0,0.104,0.029,0.196,0.06,0.289h-3.681c0.029-0.093,0.058-0.186,0.058-0.289
			c0-0.53-0.43-0.961-0.961-0.961c-0.531,0-0.961,0.431-0.961,0.961c0,0.104,0.028,0.196,0.058,0.289h-3.681
			c0.029-0.093,0.059-0.186,0.059-0.289C11.851,0.431,11.42,0,10.89,0c-0.531,0-0.962,0.431-0.962,0.961
			c0,0.104,0.028,0.196,0.058,0.289h-3.68c0.03-0.093,0.059-0.186,0.059-0.289C6.365,0.431,5.935,0,5.404,0
			C4.873,0,4.442,0.431,4.442,0.961c0,0.104,0.028,0.196,0.058,0.289H3.375c-1.518,0-2.75,1.233-2.75,2.75v26
			c0,1.518,1.232,2.75,2.75,2.75H26.27l5.855-5.855V4C32.125,2.483,30.893,1.25,29.375,1.25z M30.625,26.273l-0.311,0.311h-2.355
			c-1.102,0-2,0.898-2,2v2.355l-0.311,0.311H3.375c-0.689,0-1.25-0.561-1.25-1.25V9h28.5V26.273z M30.625,7.208c0,0.55-0.45,1-1,1
			h-26.5c-0.55,0-1-0.45-1-1v-4c0-0.55,0.45-1,1-1h26.5c0.55,0,1,0.45,1,1V7.208z"/>
		<path d="M6.359,4.68C6.233,4.593,6.097,4.524,5.953,4.471C5.807,4.417,5.672,4.364,5.546,4.308
			C5.419,4.253,5.315,4.187,5.233,4.111C5.151,4.034,5.109,3.925,5.109,3.786c0-0.282,0.123-0.423,0.368-0.423
			c0.133,0,0.227,0.046,0.281,0.137c0.051,0.085,0.076,0.223,0.076,0.413h0.892V3.819c0-0.15-0.022-0.29-0.065-0.421
			c-0.045-0.13-0.116-0.243-0.215-0.341c-0.1-0.097-0.229-0.173-0.389-0.229C5.898,2.773,5.703,2.746,5.471,2.746
			c-0.238,0-0.438,0.031-0.602,0.094S4.573,2.986,4.471,3.09C4.367,3.194,4.295,3.317,4.25,3.455
			c-0.043,0.14-0.065,0.288-0.065,0.446c0,0.245,0.041,0.441,0.124,0.588c0.082,0.146,0.187,0.266,0.313,0.354
			c0.127,0.09,0.263,0.16,0.408,0.211c0.145,0.052,0.279,0.104,0.406,0.16c0.127,0.055,0.23,0.122,0.313,0.2
			c0.083,0.079,0.124,0.188,0.124,0.327c0,0.056-0.006,0.111-0.02,0.168C5.84,5.967,5.818,6.017,5.785,6.061
			c-0.033,0.044-0.076,0.08-0.129,0.107C5.602,6.195,5.535,6.209,5.455,6.209c-0.162,0-0.269-0.05-0.322-0.148
			c-0.053-0.099-0.08-0.224-0.08-0.374V5.549H4.162v0.253c0,0.206,0.036,0.374,0.107,0.506c0.072,0.133,0.167,0.237,0.286,0.313
			c0.119,0.077,0.257,0.131,0.413,0.16C5.123,6.81,5.285,6.825,5.454,6.825c0.213,0,0.401-0.023,0.566-0.069
			c0.165-0.045,0.305-0.119,0.421-0.22c0.115-0.101,0.203-0.229,0.264-0.388c0.061-0.157,0.091-0.349,0.091-0.572
			c0-0.23-0.041-0.417-0.123-0.558C6.591,4.879,6.486,4.766,6.359,4.68z"/>
		<path d="M9.498,5.408c0-0.253-0.011-0.484-0.031-0.693s-0.069-0.39-0.148-0.542c-0.078-0.151-0.197-0.27-0.354-0.352
			C8.808,3.738,8.591,3.697,8.316,3.697c-0.241,0-0.44,0.037-0.596,0.11C7.564,3.88,7.44,3.982,7.349,4.112
			c-0.092,0.131-0.156,0.284-0.19,0.463c-0.034,0.178-0.052,0.371-0.052,0.58c0,0.22,0.01,0.431,0.029,0.632
			c0.021,0.202,0.072,0.38,0.154,0.534c0.082,0.153,0.203,0.276,0.363,0.368c0.16,0.092,0.381,0.138,0.662,0.138
			c0.375,0,0.658-0.089,0.854-0.267c0.193-0.178,0.295-0.454,0.303-0.828H8.645C8.635,5.92,8.607,6.056,8.563,6.144
			C8.519,6.233,8.438,6.277,8.321,6.277c-0.128,0-0.215-0.058-0.258-0.171C8.018,5.993,7.997,5.82,7.997,5.589V5.407L9.498,5.408
			L9.498,5.408z M8.057,4.418c0.04-0.113,0.134-0.171,0.28-0.171c0.124,0,0.206,0.056,0.245,0.165C8.62,4.522,8.64,4.682,8.64,4.891
			H7.996C7.996,4.689,8.016,4.531,8.057,4.418z"/>
		<path d="M12.043,4.053c-0.076-0.123-0.173-0.213-0.288-0.27c-0.116-0.058-0.247-0.086-0.394-0.086
			c-0.099,0-0.186,0.014-0.258,0.041c-0.074,0.028-0.137,0.063-0.19,0.104c-0.053,0.043-0.095,0.091-0.126,0.144
			c-0.031,0.053-0.055,0.104-0.068,0.151h-0.012V3.774H9.85v3.943h0.891V6.425h0.011c0.073,0.161,0.173,0.269,0.297,0.321
			c0.125,0.054,0.247,0.08,0.368,0.08c0.18,0,0.326-0.04,0.44-0.118c0.114-0.079,0.202-0.189,0.265-0.33
			c0.063-0.142,0.104-0.309,0.126-0.503s0.033-0.407,0.033-0.639c0-0.278-0.021-0.515-0.061-0.709
			C12.18,4.333,12.121,4.175,12.043,4.053z M11.381,5.65c-0.006,0.109-0.02,0.204-0.041,0.283c-0.022,0.078-0.057,0.139-0.102,0.182
			c-0.047,0.042-0.109,0.062-0.19,0.062c-0.077,0-0.136-0.022-0.179-0.071c-0.042-0.048-0.074-0.113-0.096-0.198
			c-0.022-0.084-0.036-0.183-0.041-0.297c-0.006-0.113-0.009-0.236-0.009-0.368c0-0.29,0.021-0.512,0.061-0.666
			c0.04-0.153,0.126-0.23,0.259-0.23c0.08,0,0.145,0.026,0.191,0.079c0.049,0.054,0.083,0.123,0.105,0.209
			c0.021,0.087,0.035,0.187,0.041,0.298c0.006,0.111,0.008,0.228,0.008,0.349C11.389,5.417,11.387,5.54,11.381,5.65z"/>
		<path d="M13.71,2.9h-0.892v0.874h-0.367V4.39h0.367v1.59c0,0.172,0.013,0.312,0.037,0.418c0.023,0.105,0.065,0.188,0.126,0.244
			s0.142,0.095,0.245,0.113c0.102,0.018,0.23,0.027,0.385,0.027c0.168,0,0.339-0.011,0.512-0.033V6.155
			c-0.02,0.004-0.04,0.006-0.064,0.008c-0.023,0.002-0.045,0.003-0.063,0.003c-0.106,0-0.181-0.02-0.223-0.058
			C13.73,6.069,13.71,5.997,13.71,5.89V4.389h0.413V3.773H13.71V2.9z"/>
		<path d="M16.729,5.408c0-0.253-0.011-0.484-0.029-0.693c-0.02-0.209-0.07-0.39-0.148-0.542c-0.079-0.151-0.197-0.27-0.355-0.352
			c-0.157-0.083-0.373-0.124-0.648-0.124c-0.242,0-0.441,0.037-0.597,0.11c-0.156,0.073-0.28,0.175-0.371,0.305
			c-0.092,0.131-0.155,0.284-0.19,0.463c-0.034,0.178-0.052,0.371-0.052,0.58c0,0.22,0.011,0.431,0.03,0.632
			c0.02,0.202,0.072,0.38,0.154,0.534c0.082,0.153,0.203,0.276,0.363,0.368c0.159,0.092,0.38,0.138,0.662,0.138
			c0.374,0,0.658-0.089,0.853-0.267c0.195-0.178,0.295-0.454,0.303-0.828h-0.825c-0.011,0.188-0.039,0.324-0.082,0.412
			c-0.045,0.089-0.125,0.133-0.242,0.133c-0.129,0-0.215-0.058-0.259-0.171S15.23,5.82,15.23,5.589V5.407L16.729,5.408L16.729,5.408
			z M15.289,4.418c0.039-0.113,0.133-0.171,0.279-0.171c0.125,0,0.207,0.056,0.246,0.165c0.037,0.11,0.057,0.27,0.057,0.479h-0.643
			C15.229,4.689,15.248,4.531,15.289,4.418z"/>
		<path d="M20.162,3.697c-0.166,0-0.305,0.033-0.416,0.1c-0.111,0.065-0.219,0.185-0.322,0.357
			c-0.031-0.103-0.076-0.185-0.135-0.245c-0.057-0.061-0.117-0.106-0.184-0.138c-0.067-0.032-0.135-0.051-0.207-0.061
			c-0.07-0.009-0.141-0.014-0.205-0.014c-0.166,0-0.312,0.039-0.437,0.116c-0.124,0.076-0.217,0.181-0.278,0.313h-0.013V3.772
			h-0.856v2.976H18V4.801c0-0.146,0.032-0.254,0.096-0.321c0.064-0.068,0.139-0.102,0.223-0.102c0.086,0,0.148,0.03,0.193,0.091
			c0.045,0.06,0.066,0.144,0.066,0.25v2.029h0.891V4.801c0-0.146,0.031-0.254,0.096-0.321c0.064-0.068,0.14-0.102,0.224-0.102
			s0.147,0.03,0.192,0.091c0.043,0.06,0.065,0.144,0.065,0.25v2.029h0.892V4.52c0-0.286-0.065-0.495-0.199-0.627
			C20.607,3.764,20.414,3.697,20.162,3.697z"/>
		<path d="M23.73,4.146c-0.063-0.141-0.15-0.251-0.265-0.33c-0.112-0.078-0.26-0.118-0.438-0.118c-0.063,0-0.125,0.007-0.188,0.02
			c-0.063,0.013-0.123,0.034-0.182,0.063c-0.06,0.029-0.113,0.07-0.164,0.123c-0.054,0.054-0.097,0.119-0.134,0.195h-0.01V2.824
			h-0.893v3.927h0.857V6.388h0.012c0.016,0.052,0.037,0.103,0.068,0.154c0.03,0.052,0.073,0.098,0.127,0.141
			c0.053,0.042,0.117,0.076,0.188,0.104c0.074,0.027,0.16,0.041,0.259,0.041c0.147,0,0.278-0.028,0.395-0.085
			c0.115-0.058,0.212-0.147,0.289-0.27c0.076-0.123,0.135-0.282,0.176-0.477c0.04-0.194,0.061-0.431,0.061-0.709
			c0-0.231-0.012-0.443-0.033-0.638C23.835,4.454,23.793,4.287,23.73,4.146z M22.991,5.592c-0.005,0.112-0.021,0.211-0.042,0.298
			c-0.021,0.086-0.057,0.155-0.104,0.209c-0.049,0.053-0.113,0.079-0.193,0.079c-0.131,0-0.219-0.077-0.258-0.229
			c-0.041-0.154-0.062-0.376-0.062-0.666c0-0.132,0.002-0.255,0.008-0.368c0.007-0.113,0.021-0.213,0.041-0.297
			c0.022-0.085,0.056-0.15,0.097-0.198c0.043-0.048,0.104-0.071,0.18-0.071c0.08,0,0.145,0.021,0.189,0.063
			c0.047,0.042,0.079,0.103,0.102,0.181c0.021,0.079,0.037,0.174,0.042,0.283C22.996,4.985,23,5.108,23,5.244
			C23,5.364,22.996,5.48,22.991,5.592z"/>
		<path d="M26.607,5.408c0-0.253-0.01-0.484-0.03-0.693s-0.069-0.39-0.147-0.542c-0.08-0.151-0.197-0.27-0.354-0.352
			c-0.158-0.083-0.375-0.124-0.649-0.124c-0.24,0-0.439,0.037-0.597,0.11c-0.157,0.073-0.279,0.175-0.371,0.305
			c-0.092,0.131-0.155,0.284-0.188,0.463c-0.035,0.178-0.054,0.371-0.054,0.58c0,0.22,0.011,0.431,0.03,0.632
			c0.021,0.202,0.07,0.38,0.152,0.534c0.084,0.153,0.205,0.276,0.363,0.368c0.16,0.092,0.381,0.138,0.663,0.138
			c0.374,0,0.658-0.089,0.853-0.267c0.195-0.178,0.296-0.454,0.304-0.828h-0.826c-0.011,0.188-0.038,0.324-0.083,0.412
			c-0.043,0.089-0.124,0.133-0.242,0.133c-0.127,0-0.214-0.058-0.258-0.171s-0.066-0.286-0.066-0.517V5.407L26.607,5.408
			L26.607,5.408z M25.166,4.418c0.041-0.113,0.135-0.171,0.281-0.171c0.123,0,0.205,0.056,0.244,0.165
			c0.039,0.11,0.059,0.27,0.059,0.479h-0.645C25.105,4.689,25.126,4.531,25.166,4.418z"/>
		<path d="M28.543,3.697c-0.188,0-0.338,0.05-0.453,0.147c-0.115,0.1-0.203,0.215-0.262,0.347h-0.012V3.774h-0.857V6.75h0.893V5.062
			c0-0.198,0.053-0.337,0.158-0.418c0.106-0.081,0.25-0.121,0.43-0.121c0.043,0,0.084,0.002,0.123,0.006
			c0.039,0.003,0.08,0.009,0.125,0.017V3.71c-0.037-0.008-0.063-0.012-0.078-0.012L28.543,3.697L28.543,3.697z"/>
	</g>
</g>
<g>
</g>
<g>
</g>
<g>
</g>
<g>
</g>
<g>
</g>
<g>
</g>
<g>
</g>
<g>
</g>
<g>
</g>
<g>
</g>
<g>
</g>
<g>
</g>
<g>
</g>
<g>
</g>
<g>
</g>
</svg>
