<svg height="512pt" viewBox="0 0 512 512" width="512pt" xmlns="http://www.w3.org/2000/svg"><path d="m241 211.394531h30v169.605469h-30zm0 0" fill="#b4d2d7"/><path d="m30.023438 446.535156h30v65.464844h-30zm0 0" fill="#b4d2d7"/><path d="m451.976562 446.535156h30v65.464844h-30zm0 0" fill="#87a0af"/><path d="m512 333.121094h-256l-20.015625 68.789062 20.015625 68.789063h256zm0 0" fill="#03232e"/><path d="m0 333.121094h256v137.582031h-256zm0 0" fill="#07485e"/><path d="m60.035156 386.910156h90.074219v30h-90.074219zm0 0" fill="#e1ebf0"/><path d="m180.132812 386.910156h30.023438v30h-30.023438zm0 0" fill="#ffd422"/><path d="m301.84375 386.910156h30.023438v30h-30.023438zm0 0" fill="#00cc76"/><path d="m361.890625 386.910156h90.074219v30h-90.074219zm0 0" fill="#b4d2d7"/><g fill="#005fe1"><path d="m316.589844 166.3125c-16.703125-16.703125-38.648438-25.058594-60.589844-25.058594l-10.007812 15.414063 10.007812 14.574219c14.261719 0 28.519531 5.429687 39.375 16.28125zm0 0"/><path d="m366.550781 116.351562c-30.480469-30.480468-70.515625-45.722656-110.550781-45.722656l-10.007812 15.972656 10.007812 14.015626c32.355469 0 64.707031 12.316406 89.339844 36.945312zm0 0"/><path d="m416.511719 66.386719c-42.808594-42.808594-99.8125-66.386719-160.511719-66.386719l-10.007812 15 10.007812 15c52.683594 0 102.15625 20.457031 139.300781 57.601562zm0 0"/></g><path d="m195.410156 166.3125 21.214844 21.214844c10.855469-10.855469 25.113281-16.285156 39.375-16.285156v-29.988282c-21.941406 0-43.886719 8.351563-60.589844 25.058594zm0 0" fill="#69b1e9"/><path d="m145.449219 116.351562 21.210937 21.210938c24.632813-24.628906 56.984375-36.945312 89.339844-36.945312v-29.988282c-40.035156 0-80.070312 15.242188-110.550781 45.722656zm0 0" fill="#69b1e9"/><path d="m95.488281 66.386719 21.210938 21.214843c37.144531-37.144531 86.617187-57.601562 139.300781-57.601562v-30c-60.699219 0-117.703125 23.578125-160.511719 66.386719zm0 0" fill="#69b1e9"/></svg>